#N canvas 1445 150 1118 648 12;
#X declare -lib mrpeach;
#X obj 12 70 unpackOSC;
#X obj 12 105 pipelist;
#X obj 12 187 routeOSC /xy;
#X obj 40 274 hsl 180 25 0 1 0 0 empty empty empty -2 -8 0 10 -257985
-1 -1 16082 1;
#X obj 12 301 vsl 25 320 0 1 0 0 empty empty empty 0 -9 0 10 -4034
-1 -1 551 1;
#X obj 12 34 udpreceive 8000;
#X obj 37 218 routeOSC /x;
#X obj 12 246 routeOSC /y;
#X text 101 5 route OSC for tapOSC test;
#X obj 258 125 routeOSC /2;
#X obj 735 125 routeOSC /3;
#X obj 138 219 routeOSC /acc;
#X obj 130 34 import mrpeach;
#X obj 258 180 routeOSC /s1;
#X obj 366 200 hsl 100 10 0 1 0 0 empty empty empty -2 -8 0 10 -4032
-1 -1 7018 1;
#X obj 366 232 hsl 100 10 0 1 0 0 empty empty empty -2 -8 0 10 -4032
-1 -1 6501 1;
#X obj 258 212 routeOSC /s2;
#X text 5 5 Receive test:;
#X obj 366 265 hsl 100 10 0 1 0 0 empty empty empty -2 -8 0 10 -4032
-1 -1 6523 1;
#X obj 366 297 hsl 100 10 0 1 0 0 empty empty empty -2 -8 0 10 -4032
-1 -1 6501 1;
#X obj 365 332 hsl 100 10 0 1 0 0 empty empty empty -2 -8 0 10 -4032
-1 -1 6039 1;
#X obj 364 369 hsl 100 10 0 1 0 0 empty empty empty -2 -8 0 10 -4032
-1 -1 8239 1;
#X obj 258 245 routeOSC /s3;
#X obj 258 277 routeOSC /s4;
#X obj 258 312 routeOSC /s5;
#X obj 258 349 routeOSC /s6;
#X obj 483 201 vsl 10 150 0 1 0 0 empty empty empty 0 -9 0 10 -4034
-1 -1 6920 1;
#X obj 442 169 routeOSC /s7;
#X obj 442 145 routeOSC /s8;
#X obj 500 201 vsl 10 150 0 1 0 0 empty empty empty 0 -9 0 10 -4034
-1 -1 8435 1;
#X obj 363 589 tgl 15 0 empty empty empty 17 7 0 10 -262144 -1 -1 0
1;
#X obj 258 376 routeOSC /b1;
#X obj 383 589 tgl 15 0 empty empty empty 17 7 0 10 -262144 -1 -1 0
1;
#X obj 259 486 routeOSC /b2;
#X obj 404 589 tgl 15 0 empty empty empty 17 7 0 10 -262144 -1 -1 0
1;
#X obj 424 589 tgl 15 0 empty empty empty 17 7 0 10 -262144 -1 -1 0
1;
#X obj 446 589 tgl 15 0 empty empty empty 17 7 0 10 -262144 -1 -1 0
1;
#X obj 466 589 tgl 15 0 empty empty empty 17 7 0 10 -262144 -1 -1 0
1;
#X obj 487 589 tgl 15 0 empty empty empty 17 7 0 10 -262144 -1 -1 0
1;
#X obj 507 589 tgl 15 0 empty empty empty 17 7 0 10 -262144 -1 -1 0
1;
#X obj 259 403 routeOSC /b3;
#X obj 260 513 routeOSC /b4;
#X obj 260 431 routeOSC /b5;
#X obj 261 540 routeOSC /b6;
#X obj 259 458 routeOSC /b7;
#X obj 263 568 routeOSC /b8;
#X obj 571 145 routeOSC /xy;
#X obj 599 232 hsl 120 15 0 1 0 0 empty empty empty -2 -8 0 10 -257985
-1 -1 10738 1;
#X obj 571 259 vsl 15 200 0 1 0 0 empty empty empty 0 -9 0 10 -4034
-1 -1 979 1;
#X obj 596 176 routeOSC /x;
#X obj 571 204 routeOSC /y;
#X obj 735 212 routeOSC /s1;
#X obj 843 232 hsl 100 10 0 1 0 0 empty empty empty -2 -8 0 10 -4032
-1 -1 0 1;
#X obj 843 264 hsl 100 10 0 1 0 0 empty empty empty -2 -8 0 10 -4032
-1 -1 0 1;
#X obj 735 244 routeOSC /s2;
#X obj 843 297 hsl 100 10 0 1 0 0 empty empty empty -2 -8 0 10 -4032
-1 -1 0 1;
#X obj 843 329 hsl 100 10 0 1 0 0 empty empty empty -2 -8 0 10 -4032
-1 -1 5862 1;
#X obj 842 364 hsl 100 10 0 1 0 0 empty empty empty -2 -8 0 10 -4032
-1 -1 5998 1;
#X obj 841 398 hsl 100 10 0 1 0 0 empty empty empty -2 -8 0 10 -4032
-1 -1 4833 1;
#X obj 735 277 routeOSC /s3;
#X obj 735 309 routeOSC /s4;
#X obj 735 344 routeOSC /s5;
#X obj 736 378 routeOSC /s6;
#X obj 843 429 hsl 100 10 0 1 0 0 empty empty empty -2 -8 0 10 -4032
-1 -1 3624 1;
#X obj 842 461 hsl 100 10 0 1 0 0 empty empty empty -2 -8 0 10 -4032
-1 -1 0 1;
#X obj 736 409 routeOSC /s7;
#X obj 736 441 routeOSC /s8;
#X obj 986 125 routeOSC /4/b;
#X obj 986 156 print;
#X obj 134 162 routeOSC /info;
#X obj 134 193 print /info;
#X obj 12 142 routeOSC /1;
#X obj 989 188 hsl 100 10 0 15 0 0 empty empty empty -2 -8 0 10 -4032
-1 -1 0 1;
#X obj 985 221 vsl 15 300 0 15 0 0 empty empty empty 0 -9 0 10 -204800
-1 -1 0 1;
#X obj 138 316 unpack f f f;
#X obj 141 485 hsl 100 10 -12 12 0 0 empty empty empty -2 -8 0 10 -162280
-1 -1 4922 1;
#X obj 127 513 vsl 10 100 -12 12 0 0 empty empty empty 0 -9 0 10 -162280
-1 -1 8810 1;
#X obj 127 382 vsl 10 100 -12 12 0 0 empty empty empty 0 -9 0 10 -162280
-1 -1 6380 1;
#X obj 138 247 print /acc;
#X connect 0 0 1 0;
#X connect 0 1 1 1;
#X connect 1 0 9 0;
#X connect 1 0 10 0;
#X connect 1 0 67 0;
#X connect 1 0 71 0;
#X connect 2 0 6 0;
#X connect 2 0 7 0;
#X connect 5 0 0 0;
#X connect 6 0 3 0;
#X connect 7 0 4 0;
#X connect 9 0 13 0;
#X connect 9 0 16 0;
#X connect 9 0 22 0;
#X connect 9 0 23 0;
#X connect 9 0 24 0;
#X connect 9 0 25 0;
#X connect 9 0 31 0;
#X connect 9 0 28 0;
#X connect 9 0 27 0;
#X connect 9 0 33 0;
#X connect 9 0 45 0;
#X connect 9 0 40 0;
#X connect 9 0 41 0;
#X connect 9 0 42 0;
#X connect 9 0 43 0;
#X connect 9 0 44 0;
#X connect 10 0 46 0;
#X connect 10 0 51 0;
#X connect 10 0 54 0;
#X connect 10 0 59 0;
#X connect 10 0 60 0;
#X connect 10 0 61 0;
#X connect 10 0 62 0;
#X connect 10 0 65 0;
#X connect 10 0 66 0;
#X connect 11 0 74 0;
#X connect 11 0 78 0;
#X connect 13 0 14 0;
#X connect 16 0 15 0;
#X connect 22 0 18 0;
#X connect 23 0 19 0;
#X connect 24 0 20 0;
#X connect 25 0 21 0;
#X connect 27 0 26 0;
#X connect 28 0 29 0;
#X connect 31 0 30 0;
#X connect 33 0 32 0;
#X connect 40 0 34 0;
#X connect 41 0 35 0;
#X connect 42 0 36 0;
#X connect 43 0 37 0;
#X connect 44 0 38 0;
#X connect 45 0 39 0;
#X connect 46 0 49 0;
#X connect 46 0 50 0;
#X connect 49 0 47 0;
#X connect 50 0 48 0;
#X connect 51 0 52 0;
#X connect 54 0 53 0;
#X connect 59 0 55 0;
#X connect 60 0 56 0;
#X connect 61 0 57 0;
#X connect 62 0 58 0;
#X connect 65 0 63 0;
#X connect 66 0 64 0;
#X connect 67 0 68 0;
#X connect 67 0 72 0;
#X connect 67 0 73 0;
#X connect 69 0 70 0;
#X connect 71 0 2 0;
#X connect 71 0 11 0;
#X connect 71 0 69 0;
#X connect 74 0 75 0;
#X connect 74 1 76 0;
#X connect 74 2 77 0;
